<?xml version="1.0" standalone="no"?>
<!DOCTYPE svg PUBLIC "-//W3C//DTD SVG 20010904//EN"
 "http://www.w3.org/TR/2001/REC-SVG-20010904/DTD/svg10.dtd">
<svg version="1.0" xmlns="http://www.w3.org/2000/svg"
 width="1137.000000pt" height="1280.000000pt" viewBox="0 0 1137.000000 1280.000000"
 preserveAspectRatio="xMidYMid meet">
<metadata>
Created by potrace 1.15, written by Peter Selinger 2001-2017
</metadata>
<g transform="translate(0.000000,1280.000000) scale(0.100000,-0.100000)"
fill="#000000" stroke="none">
<path d="M5627 12712 c-315 -496 -846 -1081 -1469 -1618 -336 -290 -572 -477
-1253 -994 -481 -365 -783 -597 -945 -729 -1167 -948 -1699 -1689 -1870 -2604
-175 -934 -88 -1745 250 -2333 107 -186 181 -284 330 -437 486 -502 1192 -767
2115 -793 682 -20 1270 122 1723 416 252 163 499 410 662 661 l42 64 -7 -100
c-26 -416 -91 -1059 -140 -1383 -200 -1321 -628 -2032 -1497 -2486 -256 -134
-533 -236 -903 -331 l-170 -44 3185 0 3185 0 -185 49 c-345 91 -577 175 -840
307 -536 267 -911 642 -1160 1158 -247 514 -387 1169 -480 2245 -31 362 -47
575 -44 578 1 2 27 -34 57 -80 305 -460 762 -781 1342 -944 124 -35 303 -69
475 -91 199 -24 698 -24 915 1 760 88 1302 313 1718 715 630 609 838 1543 622
2790 -162 927 -690 1674 -1860 2627 -174 142 -441 348 -933 721 -890 676
-1206 933 -1653 1349 -422 393 -837 879 -1099 1286 l-57 89 -56 -89z"/>
</g>
</svg>
